<svg height="480pt" viewBox="0 0 480 480" width="480pt" xmlns="http://www.w3.org/2000/svg"><path d="m192 40s-128 185.304688-128 256c0 70.691406 57.308594 128 128 128s128-57.308594 128-128c0-24.257812-15.070312-62.007812-34.871094-101.128906-28.03125-53.375-59.125-105.085938-93.128906-154.871094zm0 0" fill="#78b9eb"/><path d="m379.902344 100.097656c-3.730469-7-7.699219-14.199218-11.902344-21.601562-14.664062 25.902344-26.9375 49.734375-35.433594 68.910156-5.835937 11.796875-10.0625 24.320312-12.566406 37.242188 0 26.507812 21.492188 48 48 48s48-21.492188 48-48c-1.472656-14.410157-15.375-46.0625-36.097656-84.550782zm0 0" fill="#78b9eb"/><path d="m360.152344 314.191406c1.097656 7.910156 7.859375 13.800782 15.847656 13.800782s14.75-5.890626 15.847656-13.800782c-4.042968-13.527344-9.351562-26.640625-15.847656-39.175781-6.5 12.53125-11.804688 25.648437-15.847656 39.175781zm0 0" fill="#78b9eb"/><g fill="#1a6fb0"><path d="m240 0c-132.546875 0-240 107.453125-240 240s107.453125 240 240 240 240-107.453125 240-240c-.148438-132.484375-107.515625-239.851562-240-240zm0 16c56.636719-.03125 111.164062 21.472656 152.527344 60.160156l-10.710938 10.710938c-2.550781-4.648438-4.90625-8.847656-6.855468-12.296875-1.539063-2.34375-4.15625-3.757813-6.960938-3.757813s-5.421875 1.414063-6.960938 3.757813c-8.464843 14.945312-23.847656 42.960937-35.199218 68.234375l-38.640625 38.65625c-26.875-50.238282-56.457031-98.980469-88.613281-146.007813-1.574219-2.046875-4.007813-3.246093-6.585938-3.246093s-5.011719 1.199218-6.585938 3.246093c-5.277343 7.648438-129.414062 188.183594-129.414062 260.542969-.023438 31.347656 10.835938 61.730469 30.71875 85.960938l-10.558594 10.566406c-60.8125-65.191406-77.144531-160.25-41.570312-242 35.570312-81.746094 116.257812-134.589844 205.410156-134.527344zm99.265625 136.054688 38.65625-38.664063c17.550781 33.511719 28.644531 59.722656 30.070313 71.617187 0 22.089844-17.910157 40-40 40-22.089844 0-40-17.910156-40-40 2.363281-11.414062 6.148437-22.484374 11.273437-32.953124zm21.941406-44.574219c2.183594-4.105469 4.433594-8.273438 6.792969-12.550781.695312 1.253906 1.351562 2.484374 2.03125 3.726562zm-263.070312 263.070312c-16.925781-21.160156-26.140625-47.453125-26.136719-74.550781 0-58.398438 94-202.878906 120-241.726562 30.179688 44.867187 58.015625 91.269531 83.398438 139.015624zm184.800781-162.199219c16.847656 34.410157 29.0625 66.617188 29.0625 87.648438.058594 48.113281-28.660156 91.601562-72.933594 110.4375-44.273437 18.835938-95.523437 9.371094-130.144531-24.039062zm-42.9375 255.648438c-56.636719.03125-111.164062-21.472656-152.527344-60.160156l10.128906-10.144532c39.191407 38.003907 97.328126 48.851563 147.589844 27.539063 50.257813-21.3125 82.878906-70.640625 82.808594-125.234375 0-24.441406-14.183594-61.238281-33.152344-99.535156l18.121094-18.121094c-.40625 1.8125-.714844 3.644531-.921875 5.488281-.03125.320313-.046875.644531-.046875.96875 0 30.925781 25.070312 56 56 56s56-25.074219 56-56c0-.3125-.015625-.621093-.046875-.929687-1.839844-18.09375-19.378906-54.3125-34.199219-82.269532l14.085938-14.089843c60.785156 65.191406 77.097656 160.238281 41.53125 241.96875s-116.238282 134.570312-205.371094 134.519531zm0 0"/><path d="m399.777344 315.296875c.132812-.960937.089844-1.9375-.121094-2.882813-4.101562-14.136718-9.613281-27.828124-16.457031-40.863281-1.335938-2.757812-4.132813-4.511719-7.199219-4.511719s-5.863281 1.753907-7.199219 4.511719c-6.839843 13.035157-12.351562 26.726563-16.449219 40.863281-.210937.945313-.253906 1.921876-.121093 2.882813 1.636719 11.878906 11.785156 20.726563 23.777343 20.726563 11.992188 0 22.140626-8.847657 23.777344-20.726563zm-23.777344 4.703125c-3.492188-.011719-6.578125-2.273438-7.640625-5.601562 2.117187-6.886719 4.667969-13.632813 7.640625-20.199219 2.972656 6.558593 5.527344 13.300781 7.640625 20.183593-1.058594 3.332032-4.144531 5.601563-7.640625 5.617188zm0 0"/><path d="m408 344h16v16h-16zm0 0"/><path d="m384 344h16v16h-16zm0 0"/><path d="m408 320h16v16h-16zm0 0"/></g></svg>