<svg id="Layer_3" height="512" viewBox="0 0 64 64" width="512" xmlns="http://www.w3.org/2000/svg" data-name="Layer 3"><path d="m51.5 30v5l-3 7h-6l-2 4-6-2-4 1v3l-7 3-3-4v-7l1.71-3 2.29-4-3-3v-4l-4-1-1-4h9l-7-11h5l4-6h10l3-2 4.57 8 3.43 6v13z" fill="#0d8e85"/><path d="m16.5 61 2-5h5l2 5-5.167 3z" fill="#e3774a"/><path d="m45 10h-7l-6 3v9h-7l-.17 1-.83 5h-2.5v-2l-4-1-1-4h9l-7-11h5l4-6 10-1 3.5-3z" fill="#55bd8d"/><path d="m51.5 30v5l-3 7h-6l-2 4-6-2-4 1v3l-7 3-3-4v-7l1.71-3h7.79l2-4h9l1-5 4.5-.9.5-.1v-4h1.5v6z" fill="#02483d"/><path d="m16 51h-2a1 1 0 0 1 0-2h2a1 1 0 0 1 0 2z" fill="#02483d"/><g fill="#55bd8d"><path d="m44 18h-1a1 1 0 0 1 0-2h1a1 1 0 0 1 0 2z"/><path d="m39 18h-1a1 1 0 0 1 0-2h1a1 1 0 0 1 0 2z"/></g></svg>