<svg height="512" viewBox="0 0 512 512" width="512" xmlns="http://www.w3.org/2000/svg"><g><g><path d="m56 16h400v480h-400z" fill="#acabb1"/><path d="m240 16h32v480h-32z" fill="#3e3d42"/><g fill="#91cc04"><path d="m80 40h32v24h-32z"/><path d="m136 40h32v24h-32z"/></g></g><g><path d="m456 8h-400a8 8 0 0 0 -8 8v480a8 8 0 0 0 8 8h400a8 8 0 0 0 8-8v-480a8 8 0 0 0 -8-8zm-224 480h-168v-464h168zm32 0h-16v-464h16zm184 0h-168v-464h168z"/><path d="m296 176h8v160h-8a8 8 0 0 0 0 16h16a8 8 0 0 0 8-8v-176a8 8 0 0 0 -8-8h-16a8 8 0 0 0 0 16z"/><path d="m216 336h-8v-160h8a8 8 0 0 0 0-16h-16a8 8 0 0 0 -8 8v176a8 8 0 0 0 8 8h16a8 8 0 0 0 0-16z"/><path d="m112 32h-32a8 8 0 0 0 -8 8v24a8 8 0 0 0 8 8h32a8 8 0 0 0 8-8v-24a8 8 0 0 0 -8-8zm-8 24h-16v-8h16z"/><path d="m168 32h-32a8 8 0 0 0 -8 8v24a8 8 0 0 0 8 8h32a8 8 0 0 0 8-8v-24a8 8 0 0 0 -8-8zm-8 24h-16v-8h16z"/></g></g></svg>