<svg id="Capa_1" enable-background="new 0 0 512 512" height="512" viewBox="0 0 512 512" width="512" xmlns="http://www.w3.org/2000/svg"><g id="XMLID_234_"><path id="XMLID_27_" d="m459.963 318.236-10.354-38.637-76.999 20.632-28.194-16.278v-55.906l28.194-16.278 76.999 20.632 10.354-38.637-38.363-10.28 57.442-33.164-20-34.641-57.442 33.164 10.279-38.363-38.637-10.353-20.631 76.999-28.195 16.278-48.416-27.951v-32.556l56.368-56.368-28.285-28.284-28.083 28.083v-66.328h-40v66.329l-28.083-28.083-28.284 28.284 56.367 56.367v32.556l-48.416 27.953-28.194-16.278-20.632-77-38.637 10.353 10.279 38.363-57.442-33.164-20 34.641 57.442 33.164-38.362 10.279 10.353 38.637 76.999-20.632 28.195 16.278v55.906l-28.195 16.278-77-20.632-10.353 38.637 38.363 10.279-57.442 33.165 20 34.641 57.442-33.164-10.279 38.363 38.637 10.353 20.632-77 28.194-16.278 48.416 27.952v32.556l-56.368 56.368 28.284 28.284 28.084-28.084v66.329h40v-66.328l28.083 28.083 28.285-28.284-56.368-56.368v-32.556l48.416-27.953 28.195 16.278 20.631 76.999 38.637-10.353-10.279-38.363 57.442 33.164 20-34.641-57.442-33.163zm-159.963-36.832-44 25.403-44-25.403v-50.807l44-25.403 44 25.403z" fill="#33d6f5"/><g id="XMLID_121_"><path id="XMLID_122_" d="m256.13 215.19c2.63 0 5.21-1.06 7.07-2.93 1.859-1.86 2.93-4.43 2.93-7.07 0-2.63-1.07-5.21-2.93-7.07s-4.44-2.93-7.07-2.93-5.21 1.07-7.07 2.93c-1.87 1.86-2.93 4.44-2.93 7.07 0 2.64 1.06 5.21 2.93 7.07 1.86 1.87 4.44 2.93 7.07 2.93z"/><path id="XMLID_124_" d="m305.001 221.937-4.93-2.847c-4.784-2.763-10.899-1.123-13.661 3.659-2.748 4.759-1.139 10.839 3.59 13.62v39.261l-34 19.63-34-19.63v-39.26l.123-.071c4.783-2.762 6.421-8.877 3.66-13.661-2.762-4.783-8.879-6.421-13.661-3.66l-5.122 2.959c-3.094 1.787-5 5.088-5 8.66v50.807c0 3.573 1.906 6.874 5 8.66l44 25.403c1.547.893 3.273 1.34 5 1.34s3.453-.447 5-1.34l44-25.403c3.094-1.786 5-5.087 5-8.66v-50.807c0-3.573-1.905-6.874-4.999-8.66z"/><path id="XMLID_135_" d="m484.042 353.02-36.534-21.093 15.044-4.031c2.562-.687 4.745-2.362 6.071-4.659s1.686-5.026.999-7.588l-10.354-38.637c-1.43-5.334-6.914-8.5-12.247-7.071l-72.998 19.56-19.607-11.32v-44.361l19.607-11.32 72.998 19.56c5.334 1.43 10.818-1.737 12.247-7.071l10.354-38.637c.687-2.562.327-5.292-.999-7.588s-3.51-3.973-6.071-4.659l-15.044-4.031 36.534-21.093c2.297-1.326 3.973-3.51 4.659-6.072.687-2.562.327-5.292-.999-7.588l-20-34.641c-2.762-4.783-8.876-6.421-13.66-3.66l-36.534 21.093 4.03-15.044c1.43-5.334-1.736-10.818-7.071-12.247l-38.637-10.353c-2.561-.686-5.29-.328-7.588.999-2.297 1.326-3.973 3.51-4.659 6.072l-19.559 72.998-19.608 11.321-38.416-22.179v-22.64l53.439-53.439c1.875-1.875 2.929-4.419 2.929-7.071s-1.054-5.196-2.929-7.071l-28.285-28.284c-3.906-3.905-10.236-3.905-14.143 0l-11.011 11.011v-42.186c0-5.523-4.478-10-10-10h-40c-5.523 0-10 4.477-10 10v42.186l-11.012-11.012c-1.875-1.875-4.419-2.929-7.071-2.929s-5.196 1.054-7.071 2.929l-28.284 28.284c-3.905 3.905-3.905 10.237 0 14.142l53.438 53.439v22.641l-38.416 22.18-19.607-11.321-19.56-72.999c-1.43-5.334-6.911-8.502-12.248-7.071l-38.637 10.353c-2.562.687-4.746 2.362-6.072 4.659s-1.686 5.026-.999 7.588l4.031 15.043-36.534-21.092c-4.781-2.761-10.898-1.123-13.66 3.66l-20 34.641c-1.326 2.297-1.686 5.026-.999 7.588s2.362 4.746 4.659 6.072l36.535 21.094-15.043 4.031c-5.334 1.429-8.5 6.913-7.071 12.248l10.353 38.636c.687 2.562 2.362 4.746 4.659 6.072 2.298 1.326 5.026 1.686 7.588.999l72.998-19.56 19.607 11.32v44.359l-19.607 11.32-72.998-19.56c-2.563-.687-5.293-.327-7.588.999-2.297 1.326-3.973 3.51-4.659 6.072l-10.353 38.636c-1.43 5.335 1.736 10.818 7.071 12.248l15.043 4.031-36.535 21.094c-2.297 1.326-3.973 3.51-4.659 6.072-.687 2.562-.327 5.292.999 7.588l20 34.641c2.761 4.783 8.877 6.421 13.66 3.66l36.535-21.093-4.031 15.043c-.687 2.562-.327 5.292.999 7.588s3.51 3.973 6.072 4.659l38.637 10.353c5.333 1.43 10.818-1.736 12.248-7.071l19.56-72.999 19.607-11.321 38.415 22.18v22.641l-53.438 53.438c-3.905 3.905-3.905 10.237 0 14.142l28.284 28.284c1.875 1.875 4.419 2.929 7.071 2.929s5.196-1.054 7.071-2.929l11.012-11.011v42.186c0 5.523 4.477 10 10 10h40c5.522 0 10-4.477 10-10v-42.186l11.012 11.012c3.905 3.906 10.235 3.906 14.143 0l28.285-28.284c1.875-1.875 2.929-4.419 2.929-7.071s-1.054-5.196-2.929-7.071l-53.44-53.44v-22.64l38.416-22.18 19.608 11.321 19.559 72.998c.687 2.562 2.362 4.746 4.659 6.072s5.025 1.686 7.588.999l38.637-10.353c5.335-1.429 8.501-6.913 7.071-12.247l-4.03-15.044 36.534 21.093c4.785 2.762 10.898 1.123 13.66-3.66l20-34.641c1.326-2.297 1.686-5.026.999-7.588-.686-2.56-2.362-4.744-4.659-6.07zm-28.66 29.64-48.781-28.164c-3.502-2.021-7.877-1.736-11.088.727-3.208 2.462-4.618 6.615-3.571 10.521l7.69 28.704-19.318 5.176-18.043-67.34c-.687-2.562-2.362-4.746-4.659-6.072l-28.195-16.278c-3.094-1.786-6.906-1.786-10 0l-48.417 27.953c-3.094 1.786-5 5.087-5 8.66v32.556c0 2.652 1.054 5.196 2.929 7.071l49.297 49.297-14.143 14.142-21.012-21.012c-2.859-2.861-7.161-3.716-10.898-2.168-3.736 1.548-6.173 5.194-6.173 9.239v56.328h-20v-56.329c0-4.044-2.437-7.691-6.173-9.239-3.737-1.548-8.039-.692-10.898 2.168l-21.012 21.012-14.142-14.142 49.296-49.296c1.875-1.875 2.929-4.419 2.929-7.071v-32.556c0-3.573-1.906-6.874-5-8.66l-48.416-27.953c-3.094-1.786-6.906-1.786-10 0l-28.194 16.278c-2.297 1.326-3.973 3.51-4.659 6.072l-18.044 67.34-19.318-5.176 7.691-28.703c1.047-3.907-.363-8.06-3.572-10.522-3.208-2.462-7.585-2.749-11.087-.727l-48.783 28.164-10-17.32 48.782-28.165c3.503-2.022 5.442-5.956 4.915-9.965-.528-4.01-3.419-7.307-7.326-8.354l-28.703-7.691 5.176-19.318 67.339 18.044c2.562.688 5.292.327 7.588-.999l28.194-16.278c3.094-1.786 5-5.087 5-8.66v-55.906c0-3.573-1.906-6.874-5-8.66l-28.194-16.278c-2.296-1.326-5.024-1.685-7.588-.999l-67.339 18.044-5.176-19.318 28.703-7.691c3.907-1.047 6.798-4.344 7.326-8.354s-1.412-7.943-4.915-9.965l-48.782-28.167 10-17.32 48.782 28.164c3.501 2.021 7.878 1.736 11.087-.727 3.209-2.462 4.619-6.615 3.572-10.522l-7.691-28.703 19.318-5.176 18.044 67.34c.687 2.562 2.362 4.746 4.659 6.072l28.194 16.278c3.094 1.786 6.906 1.786 10 0l48.417-27.953c3.094-1.786 5-5.087 5-8.66v-32.556c0-2.652-1.054-5.196-2.929-7.071l-49.296-49.296 14.142-14.142 21.012 21.012c2.859 2.86 7.161 3.717 10.898 2.168 3.737-1.548 6.173-5.194 6.173-9.239v-56.329h20v56.329c0 4.044 2.437 7.691 6.173 9.239 3.737 1.548 8.039.692 10.898-2.168l21.012-21.012 14.143 14.142-49.297 49.297c-1.875 1.875-2.929 4.419-2.929 7.071v32.556c0 3.573 1.906 6.874 5 8.66l48.416 27.953c3.094 1.787 6.906 1.786 10 0l28.195-16.278c2.297-1.326 3.973-3.51 4.659-6.072l18.043-67.34 19.318 5.176-7.69 28.704c-1.047 3.907.363 8.059 3.571 10.521 3.211 2.463 7.585 2.748 11.088.727l48.781-28.164 10 17.32-48.781 28.164c-3.503 2.022-5.442 5.956-4.914 9.965.527 4.01 3.419 7.307 7.326 8.354l28.702 7.691-5.177 19.318-67.34-18.044c-2.56-.688-5.29-.328-7.588.999l-28.194 16.278c-3.094 1.786-5 5.087-5 8.66v55.906c0 3.573 1.906 6.874 5 8.66l28.194 16.278c2.298 1.327 5.031 1.685 7.588.999l67.34-18.044 5.177 19.318-28.702 7.691c-3.907 1.047-6.799 4.344-7.326 8.354-.528 4.01 1.411 7.943 4.914 9.965l48.781 28.164z"/></g></g></svg>